<mxfile host="app.diagrams.net" agent="Mozilla/5.0 (Windows NT 10.0; Win64; x64) AppleWebKit/537.36 (KHTML, like Gecko) Chrome/130.0.0.0 Safari/537.36" version="24.8.9">
  <diagram name="Page-1" id="Pg-Uqtr7nWFSiwmGGl91">
    <mxGraphModel dx="1707" dy="434" grid="1" gridSize="10" guides="1" tooltips="1" connect="1" arrows="1" fold="1" page="1" pageScale="1" pageWidth="827" pageHeight="1169" math="0" shadow="0">
      <root>
        <mxCell id="0" />
        <mxCell id="1" parent="0" />
        <mxCell id="ybybL39Aqd3iPIoGpkd4-1" value="" style="rounded=1;whiteSpace=wrap;html=1;" vertex="1" parent="1">
          <mxGeometry x="-10" y="30" width="830" height="60" as="geometry" />
        </mxCell>
        <mxCell id="ybybL39Aqd3iPIoGpkd4-2" value="" style="rounded=1;whiteSpace=wrap;html=1;" vertex="1" parent="1">
          <mxGeometry x="-10" y="110" width="830" height="610" as="geometry" />
        </mxCell>
        <mxCell id="ybybL39Aqd3iPIoGpkd4-3" value="" style="rounded=1;whiteSpace=wrap;html=1;" vertex="1" parent="1">
          <mxGeometry x="-10" y="730" width="830" height="60" as="geometry" />
        </mxCell>
        <mxCell id="ybybL39Aqd3iPIoGpkd4-4" value="" style="rounded=0;whiteSpace=wrap;html=1;" vertex="1" parent="1">
          <mxGeometry x="30" y="170" width="190" height="150" as="geometry" />
        </mxCell>
        <mxCell id="ybybL39Aqd3iPIoGpkd4-5" value="" style="rounded=0;whiteSpace=wrap;html=1;" vertex="1" parent="1">
          <mxGeometry x="300" y="170" width="190" height="150" as="geometry" />
        </mxCell>
        <mxCell id="ybybL39Aqd3iPIoGpkd4-6" value="" style="rounded=0;whiteSpace=wrap;html=1;" vertex="1" parent="1">
          <mxGeometry x="590" y="170" width="190" height="150" as="geometry" />
        </mxCell>
        <mxCell id="ybybL39Aqd3iPIoGpkd4-7" value="" style="rounded=0;whiteSpace=wrap;html=1;" vertex="1" parent="1">
          <mxGeometry x="30" y="370" width="190" height="150" as="geometry" />
        </mxCell>
        <mxCell id="ybybL39Aqd3iPIoGpkd4-8" value="" style="rounded=0;whiteSpace=wrap;html=1;" vertex="1" parent="1">
          <mxGeometry x="310" y="370" width="190" height="150" as="geometry" />
        </mxCell>
        <mxCell id="ybybL39Aqd3iPIoGpkd4-9" value="" style="rounded=0;whiteSpace=wrap;html=1;" vertex="1" parent="1">
          <mxGeometry x="590" y="370" width="190" height="150" as="geometry" />
        </mxCell>
        <mxCell id="ybybL39Aqd3iPIoGpkd4-10" value="" style="rounded=0;whiteSpace=wrap;html=1;" vertex="1" parent="1">
          <mxGeometry x="30" y="540" width="190" height="150" as="geometry" />
        </mxCell>
        <mxCell id="ybybL39Aqd3iPIoGpkd4-11" value="" style="rounded=0;whiteSpace=wrap;html=1;" vertex="1" parent="1">
          <mxGeometry x="300" y="540" width="190" height="150" as="geometry" />
        </mxCell>
        <mxCell id="ybybL39Aqd3iPIoGpkd4-12" value="" style="rounded=0;whiteSpace=wrap;html=1;" vertex="1" parent="1">
          <mxGeometry x="590" y="540" width="190" height="150" as="geometry" />
        </mxCell>
      </root>
    </mxGraphModel>
  </diagram>
</mxfile>
